<svg xmlns="http://www.w3.org/2000/svg" width="512" height="513" fill="none"><path fill="url(#a)" d="M429.439 262.847v-21.752L280.493 83.769c-12.465-13.367-34.427-13.664-46.595 0C221.729 97.433 82.561 240.796 82.561 240.796v23.045L253.9 382.953l175.539-120.106Z"/><path fill="url(#b)" fill-opacity=".7" d="M429.439 262.847v-21.752L280.493 83.769c-12.465-13.367-34.427-13.664-46.595 0C221.729 97.433 82.561 240.796 82.561 240.796v23.045L253.9 382.953l175.539-120.106Z"/><path fill="url(#c)" fill-opacity=".7" d="M429.439 262.847v-21.752L280.493 83.769c-12.465-13.367-34.427-13.664-46.595 0C221.729 97.433 82.561 240.796 82.561 240.796v23.045L253.9 382.953l175.539-120.106Z"/><path fill="url(#d)" fill-opacity=".4" d="M429.439 262.847v-21.752L280.493 83.769c-12.465-13.367-34.427-13.664-46.595 0C221.729 97.433 82.561 240.796 82.561 240.796v23.045L253.9 382.953l175.539-120.106Z"/><path fill="url(#e)" fill-opacity=".9" d="M429.439 262.847v-21.752L280.493 83.769c-12.465-13.367-34.427-13.664-46.595 0C221.729 97.433 82.561 240.796 82.561 240.796v23.045L253.9 382.953l175.539-120.106Z"/><rect width="243.763" height="263.638" x="134.118" y="123.959" fill="#6C6C6C" rx="18.209"/><rect width="243.763" height="263.638" x="134.118" y="123.959" fill="url(#f)" rx="18.209"/><path fill="url(#g)" fill-rule="evenodd" d="M429.439 239.853c-.078 55.942-.19 111.884-.224 167.826-.011 17.494-14.104 31.669-31.597 31.65-75.622-.082-219.532-.19-282.996-.237-17.426-.012-31.447-14.112-31.505-31.538l-.556-168.194 173.328 125.084 173.55-124.591Z" clip-rule="evenodd"/><path fill="url(#h)" fill-rule="evenodd" d="M429.439 239.853c-.078 55.942-.19 111.884-.224 167.826-.011 17.494-14.104 31.669-31.597 31.65-75.622-.082-219.532-.19-282.996-.237-17.426-.012-31.447-14.112-31.505-31.538l-.556-168.194 173.328 125.084 173.55-124.591Z" clip-rule="evenodd"/><path fill="url(#i)" fill-rule="evenodd" d="M429.439 239.853c-.078 55.942-.19 111.884-.224 167.826-.011 17.494-14.104 31.669-31.597 31.65-75.622-.082-219.532-.19-282.996-.237-17.426-.012-31.447-14.112-31.505-31.538l-.556-168.194 173.328 125.084 173.55-124.591Z" clip-rule="evenodd"/><path fill="url(#j)" fill-rule="evenodd" d="M429.439 239.853c-.078 55.942-.19 111.884-.224 167.826-.011 17.494-14.104 31.669-31.597 31.65-75.622-.082-219.532-.19-282.996-.237-17.426-.012-31.447-14.112-31.505-31.538l-.556-168.194 173.328 125.084 173.55-124.591Z" clip-rule="evenodd"/><path fill="url(#k)" fill-rule="evenodd" d="M429.439 239.853c-.078 55.942-.19 111.884-.224 167.826-.011 17.494-14.104 31.669-31.597 31.65-75.622-.082-219.532-.19-282.996-.237-17.426-.012-31.447-14.112-31.505-31.538l-.556-168.194 173.328 125.084 173.55-124.591Z" clip-rule="evenodd"/><path fill="url(#l)" fill-opacity=".8" fill-rule="evenodd" d="M429.439 239.853c-.078 55.942-.19 111.884-.224 167.826-.011 17.494-14.104 31.669-31.597 31.65-75.622-.082-219.532-.19-282.996-.237-17.426-.012-31.447-14.112-31.505-31.538l-.556-168.194 173.328 125.084 173.55-124.591Z" clip-rule="evenodd"/><defs><linearGradient id="f" x1="363.108" x2="62.396" y1="107.274" y2="528.171" gradientUnits="userSpaceOnUse"><stop offset=".368" stop-color="#E7E7E7"/><stop offset=".714" stop-color="#C9F5FF"/></linearGradient><linearGradient id="g" x1="256" x2="256" y1="239.36" y2="448.24" gradientUnits="userSpaceOnUse"><stop offset=".336" stop-color="#E7E7E7"/><stop offset=".741" stop-color="#E7E7E7"/><stop offset=".865" stop-color="#D7D7D7"/><stop offset=".917" stop-color="#C7C7C7"/><stop offset=".975" stop-color="#F2F2F2"/></linearGradient><linearGradient id="h" x1="242.738" x2="183.871" y1="300.349" y2="380.514" gradientUnits="userSpaceOnUse"><stop offset=".416" stop-color="#DEDEDE" stop-opacity="0"/><stop offset=".444" stop-color="#fff"/><stop offset=".622" stop-color="#fff" stop-opacity="0"/></linearGradient><linearGradient id="i" x1="256" x2="256" y1="239.36" y2="448.24" gradientUnits="userSpaceOnUse"><stop offset=".503" stop-color="#E7E7E7" stop-opacity="0"/><stop offset=".627" stop-color="#E7E7E7"/><stop offset=".775" stop-color="#E7E7E7"/><stop offset=".865" stop-color="#D7D7D7"/><stop offset=".917" stop-color="#C7C7C7"/><stop offset=".975" stop-color="#F2F2F2"/></linearGradient><linearGradient id="j" x1="196.063" x2="265.08" y1="345.004" y2="439.354" gradientUnits="userSpaceOnUse"><stop offset=".416" stop-color="#DEDEDE" stop-opacity="0"/><stop offset=".444" stop-color="#fff"/><stop offset=".588" stop-color="#fff" stop-opacity="0"/></linearGradient><linearGradient id="k" x1="256" x2="256" y1="239.36" y2="448.24" gradientUnits="userSpaceOnUse"><stop offset=".79" stop-color="#DFDFDF" stop-opacity="0"/><stop offset=".917" stop-color="#C7C7C7"/><stop offset=".975" stop-color="#F2F2F2"/></linearGradient><linearGradient id="l" x1="221.641" x2="75.03" y1="339.384" y2="339.384" gradientUnits="userSpaceOnUse"><stop offset=".835" stop-color="#D7D7D7" stop-opacity="0"/><stop offset=".912" stop-color="#BCBCBC"/><stop offset="1" stop-color="#F2F2F2"/></linearGradient><radialGradient id="a" cx="0" cy="0" r="1" gradientTransform="rotate(44.82 29.665 391.063) scale(473.581 392.939)" gradientUnits="userSpaceOnUse"><stop offset=".062" stop-color="#DFB7FF"/><stop offset=".222" stop-color="#DFB7FF"/><stop offset=".331" stop-color="#44C1F7"/></radialGradient><radialGradient id="b" cx="0" cy="0" r="1" gradientTransform="rotate(1.828 -8110.383 4876.199) scale(95.4283 208.9)" gradientUnits="userSpaceOnUse"><stop offset=".216" stop-color="#0055FA"/><stop offset=".399" stop-color="#0055FA" stop-opacity="0"/></radialGradient><radialGradient id="c" cx="0" cy="0" r="1" gradientTransform="rotate(134.594 165.668 189.977) scale(101.168 221.465)" gradientUnits="userSpaceOnUse"><stop offset=".274" stop-color="#0055FA"/><stop offset=".399" stop-color="#0055FA" stop-opacity="0"/></radialGradient><radialGradient id="d" cx="0" cy="0" r="1" gradientTransform="matrix(-23.86658 -50.71677 157.27213 -74.01 231.364 84.86)" gradientUnits="userSpaceOnUse"><stop offset=".357" stop-color="#AC6BFF"/><stop offset=".462" stop-color="#AC6BFF" stop-opacity="0"/></radialGradient><radialGradient id="e" cx="0" cy="0" r="1" gradientTransform="matrix(-35.88936 54.19619 -168.06195 -111.29262 301.979 94.325)" gradientUnits="userSpaceOnUse"><stop offset=".357" stop-color="#AC6BFF"/><stop offset=".462" stop-color="#AC6BFF" stop-opacity="0"/></radialGradient></defs></svg>